<?xml version="1.0" ?><svg id="Layer_1" style="enable-background:new 0 0 32 32;" version="1.1" viewBox="0 0 32 32" xml:space="preserve" xmlns="http://www.w3.org/2000/svg" xmlns:xlink="http://www.w3.org/1999/xlink"><g><path d="M25.45,3.53c-2.51,0-4.55,2.04-4.55,4.55c0,4.01,3.88,6.06,4.04,6.14c0.15,0.08,0.33,0.13,0.51,0.13   c0.17,0,0.35-0.04,0.51-0.13C26.12,14.14,30,12.1,30,8.09C30,5.58,27.95,3.53,25.45,3.53z M25.47,9.63c-0.91,0-1.69-0.74-1.69-1.64   c0-0.91,0.69-1.64,1.59-1.64h0.1c0.91,0,1.65,0.74,1.65,1.64C27.12,8.89,26.38,9.63,25.47,9.63z"/><path d="M18.85,4.77c-0.11-0.51-0.56-0.88-1.08-0.88H7.84c-0.52,0-0.97,0.37-1.08,0.88L2.03,27.13c-0.07,0.32,0.01,0.66,0.22,0.92   c0.21,0.26,0.52,0.41,0.86,0.41h19.4c0.33,0,0.65-0.15,0.85-0.41c0.21-0.26,0.29-0.6,0.22-0.92L18.85,4.77z M13.91,25.41   c0,0.35-0.15,0.65-0.41,0.85c-0.18,0.16-0.43,0.26-0.7,0.26c-0.27,0-0.52-0.1-0.7-0.26c-0.25-0.2-0.41-0.5-0.41-0.85v-3.53   c0-0.61,0.49-1.11,1.11-1.11c0.61,0,1.11,0.49,1.11,1.11V25.41z M13.91,17.39c0,0.61-0.49,1.11-1.11,1.11   c-0.61,0-1.11-0.49-1.11-1.11v-3.41c0-0.61,0.49-1.11,1.11-1.11c0.61,0,1.11,0.49,1.11,1.11V17.39z M13.91,9.63   c0,0.61-0.49,1.11-1.11,1.11c-0.61,0-1.11-0.49-1.11-1.11V6.95c0-0.35,0.15-0.65,0.41-0.85c0.18-0.16,0.43-0.26,0.7-0.26   c0.27,0,0.52,0.1,0.7,0.26c0.25,0.2,0.41,0.5,0.41,0.85V9.63z"/></g></svg>